# xmcd
#
# Track frame offsets: 
#        150
#        22830
#        34721
#        50942
#        72185
#        88462
#        103640
#        125557
#
# Disc length: 1997 seconds
#
# Revision: 0
# Processed by: cddbd v1.5.1PL2 Copyright (c) Steve Scherf et al.
# Submitted via: ExactAudioCopy v0.95a5
#
DISCID=6d07cb08
DTITLE=All4One - Greatest Hits
DYEAR=2004
DGENRE=R&B
TTITLE0=I Swear
TTITLE1=So Much In Love
TTITLE2=I Can Love You Like That
TTITLE3=Hard Habit To Break
TTITLE4=All The Wrong Reasons
TTITLE5=It's Who You Are
TTITLE6=I Can Love You Like That (Live)
TTITLE7=I Swear (Live)
EXTD=
EXTT0=
EXTT1=
EXTT2=
EXTT3=
EXTT4=
EXTT5=
EXTT6=
EXTT7=
PLAYORDER=
